<?xml version="1.0" encoding="UTF-8" standalone="no"?>
<!-- Created with Inkscape (http://www.inkscape.org/) -->

<svg
   xmlns:dc="http://purl.org/dc/elements/1.1/"
   xmlns:cc="http://creativecommons.org/ns#"
   xmlns:rdf="http://www.w3.org/1999/02/22-rdf-syntax-ns#"
   xmlns:svg="http://www.w3.org/2000/svg"
   xmlns="http://www.w3.org/2000/svg"
   xmlns:sodipodi="http://sodipodi.sourceforge.net/DTD/sodipodi-0.dtd"
   xmlns:inkscape="http://www.inkscape.org/namespaces/inkscape"
   width="29.094797mm"
   height="16.772467mm"
   viewBox="0 0 29.094797 16.772467"
   version="1.1"
   id="svg8"
   inkscape:version="0.92.2 (5c3e80d, 2017-08-06)"
   sodipodi:docname="Letras iniciales.svg"
   inkscape:export-filename="D:\Inkscape\The Workshop\Letras iniciales grande.png"
   inkscape:export-xdpi="873.00226"
   inkscape:export-ydpi="873.00226">
  <defs
     id="defs2" />
  <sodipodi:namedview
     id="base"
     pagecolor="#e24d2a"
     bordercolor="#666666"
     borderopacity="1.0"
     inkscape:pageopacity="1"
     inkscape:pageshadow="2"
     inkscape:zoom="0.97681769"
     inkscape:cx="-109.01433"
     inkscape:cy="-1.4895713"
     inkscape:document-units="mm"
     inkscape:current-layer="layer1"
     showgrid="false"
     inkscape:window-width="1920"
     inkscape:window-height="1017"
     inkscape:window-x="-8"
     inkscape:window-y="91"
     inkscape:window-maximized="1"
     inkscape:pagecheckerboard="true"
     showguides="false">
    <inkscape:grid
       type="xygrid"
       id="grid833"
       originx="-130.32388"
       originy="-103.43051" />
  </sodipodi:namedview>
  <metadata
     id="metadata5">
    <rdf:RDF>
      <cc:Work
         rdf:about="">
        <dc:format>image/svg+xml</dc:format>
        <dc:type
           rdf:resource="http://purl.org/dc/dcmitype/StillImage" />
        <dc:title />
      </cc:Work>
    </rdf:RDF>
  </metadata>
  <g
     inkscape:groupmode="layer"
     id="layer2"
     inkscape:label="Sombra letras"
     transform="translate(-221.90074,-26.320694)" />
  <g
     inkscape:label="Letras"
     inkscape:groupmode="layer"
     id="layer1"
     transform="translate(-221.90074,-26.320694)">
    <flowRoot
       xml:space="preserve"
       id="flowRoot10"
       style="font-style:normal;font-variant:normal;font-weight:normal;font-stretch:normal;font-size:40px;line-height:1.25;font-family:Bungee;-inkscape-font-specification:'Bungee, Normal';font-variant-ligatures:normal;font-variant-caps:normal;font-variant-numeric:normal;font-feature-settings:normal;text-align:start;letter-spacing:0px;word-spacing:0px;writing-mode:lr-tb;text-anchor:start;fill:#000000;fill-opacity:1;stroke:none"
       transform="scale(0.26458333)"><flowRegion
         id="flowRegion12"
         style="font-style:normal;font-variant:normal;font-weight:normal;font-stretch:normal;font-size:40px;font-family:Bungee;-inkscape-font-specification:'Bungee, Normal';font-variant-ligatures:normal;font-variant-caps:normal;font-variant-numeric:normal;font-feature-settings:normal;text-align:start;writing-mode:lr-tb;text-anchor:start"><rect
           id="rect14"
           width="662.85712"
           height="188.57143"
           x="60"
           y="73.948257"
           style="font-style:normal;font-variant:normal;font-weight:normal;font-stretch:normal;font-size:40px;font-family:Bungee;-inkscape-font-specification:'Bungee, Normal';font-variant-ligatures:normal;font-variant-caps:normal;font-variant-numeric:normal;font-feature-settings:normal;text-align:start;writing-mode:lr-tb;text-anchor:start" /></flowRegion><flowPara
         id="flowPara16" /></flowRoot>    <g
       id="g831"
       transform="translate(139.77134,-103.43051)"
       inkscape:export-xdpi="25.4"
       inkscape:export-ydpi="25.4">
      <g
         aria-label="TW"
         style="font-style:normal;font-variant:normal;font-weight:bold;font-stretch:normal;font-size:19.75555611px;line-height:1.25;font-family:'Bungee Layers';-inkscape-font-specification:'Bungee Layers, Bold';font-variant-ligatures:normal;font-variant-caps:normal;font-variant-numeric:normal;font-feature-settings:normal;text-align:start;letter-spacing:-1.50812495px;word-spacing:0px;writing-mode:lr-tb;text-anchor:start;fill:#550000;fill-opacity:1;stroke:none;stroke-width:0.26458332"
         id="text20">
        <path
           d="m 89.853821,146.52367 c 0.276578,0 0.493889,-0.079 0.612423,-0.19755 l 2.568222,-2.1336 c 0.1778,-0.15805 0.276578,-0.37536 0.276578,-0.73096 v -7.34907 h 0.158044 c 0.276578,0 0.493889,-0.079 0.612422,-0.19755 l 2.568223,-2.1336 c 0.1778,-0.15805 0.276577,-0.37536 0.276577,-0.73096 v -2.39042 c 0,-0.63218 -0.276577,-0.90876 -0.908755,-0.90876 H 85.586621 c -0.276578,0 -0.493889,0.0593 -0.632178,0.1778 l -2.548466,2.15336 c -0.1778,0.15804 -0.276578,0.37536 -0.276578,0.73096 v 2.39042 c 0,0.63218 0.276578,0.90875 0.908755,0.90875 h 2.706512 v 9.50243 c 0,0.63217 0.276577,0.90875 0.908755,0.90875 z"
           style=""
           id="path828" />
        <path
           d="m 99.92739,146.2866 2.27189,-1.89653 0.39511,1.40265 c 0.15805,0.49388 0.57291,0.73095 1.10631,0.73095 h 2.62749 c 0.23707,0 0.41487,-0.079 0.57291,-0.23707 l 2.54847,-2.11384 c 0.19755,-0.1778 0.31609,-0.39511 0.39511,-0.65193 l 0.98778,-2.68676 c 0.37535,-0.98778 0.37535,-1.63971 0.37535,-2.50895 v -7.66516 c 0,-0.63218 -0.27657,-0.90876 -0.90875,-0.90876 h -2.94358 c -0.29633,0 -0.49389,0.0593 -0.63218,0.1778 l -2.56822,2.15336 -0.0198,0.0198 c -0.15804,0.13828 -0.23706,0.3556 -0.23706,0.7112 v 1.81751 h -0.27658 c -0.37536,0 -0.67169,0.079 -0.889,0.25682 l -1.10631,0.92851 v -5.1562 c 0,-0.63218 -0.27658,-0.90876 -0.90876,-0.90876 h -3.042353 c -0.276578,0 -0.493889,0.0593 -0.632178,0.1778 l -2.548466,2.15336 c -0.1778,0.15804 -0.276578,0.37536 -0.276578,0.73096 v 7.62564 c 0,0.86924 0,1.52118 0.375355,2.50896 l 0.987778,2.72626 c 0.158045,0.51365 0.5334,0.84949 1.047045,0.84949 h 2.607733 c 0.256822,0 0.493889,-0.0988 0.691444,-0.23707 z"
           style=""
           id="path830" />
      </g>
      <g
         aria-label="TW"
         transform="matrix(0.26458333,0,0,0.26458333,62.121791,-27.014117)"
         style="font-style:normal;font-variant:normal;font-weight:normal;font-stretch:normal;font-size:74.66666412px;line-height:1.25;font-family:Bungee;-inkscape-font-specification:'Bungee, Normal';font-variant-ligatures:normal;font-variant-caps:normal;font-variant-numeric:normal;font-feature-settings:normal;text-align:start;letter-spacing:-5.70000029px;word-spacing:0px;writing-mode:lr-tb;text-anchor:start;fill:#ffebeb;fill-opacity:0.97254902;stroke:#550000;stroke-width:0.86929137;stroke-miterlimit:4;stroke-dasharray:none"
         id="flowRoot4531">
        <path
           d="m 114.81992,646.7908 c 1.86666,0 2.688,-0.82133 2.688,-2.688 v -36.66133 h 10.976 c 1.86666,0 2.688,-0.82133 2.688,-2.688 v -9.03466 c 0,-1.86667 -0.82134,-2.688 -2.688,-2.688 H 89.059917 c -1.866667,0 -2.688,0.82133 -2.688,2.688 v 9.03466 c 0,1.86667 0.821333,2.688 2.688,2.688 h 10.976003 v 36.66133 c 0,1.86667 0.82133,2.688 2.688,2.688 z"
           style=""
           id="path833" />
        <path
           d="m 171.33591,593.03081 c -1.94133,0 -2.688,0.82133 -2.688,2.688 v 27.47733 l -4.33066,-9.408 c -0.82134,-1.71733 -2.016,-2.31467 -3.95734,-2.31467 h -3.136 c -1.94133,0 -3.13599,0.59734 -3.95733,2.31467 l -4.33066,9.408 v -27.47733 c 0,-1.86667 -0.82134,-2.688 -2.688,-2.688 h -11.49867 c -1.86667,0 -2.688,0.82133 -2.688,2.688 v 28.82133 c 0,3.21067 0,5.6 1.344,9.25867 l 3.73333,10.30399 c 0.52267,1.568 1.64267,2.688 3.28534,2.688 h 9.856 c 1.568,0 2.688,-0.74666 3.136,-2.24 l 3.50933,-12.17066 c 0.29866,-0.97067 0.74666,-1.26933 1.344,-1.26933 h 0.672 c 0.59733,0 1.04533,0.29866 1.344,1.26933 l 3.43466,12.17066 c 0.448,1.568 1.792,2.24 3.43467,2.24 h 9.93067 c 1.568,0 2.464,-1.19466 2.98666,-2.688 l 3.73334,-10.15466 c 1.344,-3.65867 1.344,-6.048 1.344,-9.25867 v -28.97066 c 0,-1.86667 -0.82134,-2.688 -2.688,-2.688 z"
           style=""
           id="path835" />
      </g>
    </g>
  </g>
</svg>
